<svg id="visual" viewBox="0 0 900 600" width="900" height="600" xmlns="http://www.w3.org/2000/svg" xmlns:xlink="http://www.w3.org/1999/xlink" version="1.1"><rect x="0" y="0" width="900" height="600" fill="#0d1216"></rect><defs><linearGradient id="grad1_0" x1="33.3%" y1="0%" x2="100%" y2="100%"><stop offset="20%" stop-color="#0d1216" stop-opacity="1"></stop><stop offset="80%" stop-color="#0d1216" stop-opacity="1"></stop></linearGradient></defs><defs><linearGradient id="grad2_0" x1="0%" y1="0%" x2="66.7%" y2="100%"><stop offset="20%" stop-color="#0d1216" stop-opacity="1"></stop><stop offset="80%" stop-color="#0d1216" stop-opacity="1"></stop></linearGradient></defs><g transform="translate(900, 0)"><path d="M0 405.6C-44.9 398.6 -89.8 391.5 -118.7 365.2C-147.6 338.9 -160.5 293.3 -199.3 274.3C-238 255.2 -302.7 262.8 -328.2 238.4C-353.6 214 -339.8 157.6 -346.2 112.5C-352.6 67.4 -379.1 33.7 -405.6 0L0 0Z" fill="#6600FF"></path></g><g transform="translate(0, 600)"><path d="M0 -405.6C43.6 -404.5 87.3 -403.4 125.3 -385.8C163.4 -368.1 195.9 -334 216.9 -298.5C237.8 -263.1 247.2 -226.4 272.6 -198.1C298 -169.8 339.4 -150 364.3 -118.4C389.1 -86.7 397.4 -43.4 405.6 0L0 0Z" fill="#6600FF"></path></g></svg>