<svg id="visual" viewBox="0 0 1920 1080" width="1920" height="1080" xmlns="http://www.w3.org/2000/svg" xmlns:xlink="http://www.w3.org/1999/xlink" version="1.1"><rect x="0" y="0" width="1920" height="1080" fill="#04111a"></rect><defs><linearGradient id="grad1_0" x1="43.8%" y1="0%" x2="100%" y2="100%"><stop offset="14.444444444444446%" stop-color="#04111a" stop-opacity="1"></stop><stop offset="85.55555555555554%" stop-color="#04111a" stop-opacity="1"></stop></linearGradient></defs><defs><linearGradient id="grad2_0" x1="0%" y1="0%" x2="56.3%" y2="100%"><stop offset="14.444444444444446%" stop-color="#04111a" stop-opacity="1"></stop><stop offset="85.55555555555554%" stop-color="#04111a" stop-opacity="1"></stop></linearGradient></defs><g transform="translate(1920, 0)"><path d="M0 918C-53.4 843.1 -106.8 768.3 -172.9 757.5C-239 746.8 -317.9 800.1 -387.5 804.6C-457.1 809 -517.4 764.5 -572.4 717.7C-627.3 670.9 -676.8 621.9 -703.6 561.1C-730.4 500.4 -734.5 428.1 -764 367.9C-793.5 307.8 -848.5 259.8 -878.4 200.5C-908.3 141.2 -913.2 70.6 -918 0L0 0Z" fill="#4b5dc1"></path></g><g transform="translate(0, 1080)"><path d="M0 -918C45.6 -824.5 91.3 -731.1 168.4 -738C245.6 -744.9 354.4 -852.3 398.3 -827.1C442.3 -801.9 421.4 -644.3 469.5 -588.7C517.5 -533.1 634.5 -579.6 705.2 -562.4C776 -545.2 800.5 -464.2 814.5 -392.2C828.4 -320.3 831.7 -257.2 847.2 -193.4C862.7 -129.5 890.3 -64.7 918 0L0 0Z" fill="#4b5dc1"></path></g></svg>